<?xml version="1.0" encoding="UTF-8"?>
<svg version="1.1" xmlns="http://www.w3.org/2000/svg" xmlns:xlink="http://www.w3.org/1999/xlink">
<defs>

</defs>
<symbol id="i-cup" viewBox="0 0 30 24" xmlns="http://www.w3.org/2000/svg"><path d="M16.333 18.584v2.75H23V24H7v-2.667h6.667v-2.749A10.668 10.668 0 014.333 8V0h21.334v8a10.669 10.669 0 01-9.334 10.584zm-16-15.917H3V8H.333V2.667zm26.667 0h2.667V8H27V2.667z" fill="#677B8F"/></symbol>
<symbol id="i-logo" viewBox="0 0 30 42" fill="none" xmlns="http://www.w3.org/2000/svg"><circle cx="8" cy="19" r="8" fill="#012345"/><circle cx="26" cy="4" r="4" fill="#4959FF"/><path d="M7 42a23 23 0 0023-23h-8.28A14.719 14.719 0 017 33.72V42z" fill="#4959FF"/></symbol>
<symbol id="i-messages" viewBox="0 0 20 18" xmlns="http://www.w3.org/2000/svg"><path d="M0 5.994A5.99 5.99 0 016 0h8c3.313 0 6 2.695 6 5.994V18H6c-3.313 0-6-2.695-6-5.994V5.994zM18 16V5.994A4.004 4.004 0 0014 2H6a3.99 3.99 0 00-4 3.994v6.012A4.004 4.004 0 006 16h12zm-6-8h2v2h-2V8zM6 8h2v2H6V8z"/></symbol>
<symbol id="i-night-mode" viewBox="0 0 20 20" xmlns="http://www.w3.org/2000/svg"><path d="M8 5a7 7 0 0012 4.9v.1c0 5.523-4.477 10-10 10S0 15.523 0 10 4.477 0 10 0h.1A6.979 6.979 0 008 5zm-6 5a8 8 0 0015.062 3.762A9 9 0 016.238 2.938 7.999 7.999 0 002 10z"/></symbol>
<symbol id="i-pepelane" viewBox="0 0 106 22" fill="none" xmlns="http://www.w3.org/2000/svg"><path d="M7.613 1.063c1.063 0 2.012.23 2.848.69.844.462 1.5 1.102 1.969 1.923.476.812.715 1.73.715 2.754 0 1.078-.235 2.035-.704 2.87a4.956 4.956 0 01-1.957 1.934c-.828.454-1.77.68-2.824.68H3.816V17H.898V1.062h6.715zm-.093 8.25c.5 0 .957-.126 1.37-.376.415-.257.739-.605.973-1.042.242-.438.364-.926.364-1.465 0-.485-.122-.938-.364-1.36a2.83 2.83 0 00-.996-1.02 2.543 2.543 0 00-1.37-.386h-3.68v5.649H7.52zM26.117 10.766c0 .265-.02.586-.058.96h-9.41c.093.641.296 1.196.609 1.665.32.468.715.828 1.183 1.078.477.242.993.363 1.547.363.703 0 1.278-.137 1.723-.41.453-.281.785-.684.996-1.207h3.094a5.546 5.546 0 01-1.113 2.062 5.86 5.86 0 01-2.004 1.524c-.797.375-1.676.562-2.637.562-1.18 0-2.246-.285-3.2-.855a6.08 6.08 0 01-2.238-2.32 6.534 6.534 0 01-.808-3.211c0-1.165.27-2.235.808-3.211a6.08 6.08 0 012.239-2.32c.953-.571 2.02-.856 3.199-.856 1.18 0 2.23.281 3.152.844a5.85 5.85 0 012.145 2.261c.515.938.773 1.961.773 3.07zm-2.894-1.23a2.272 2.272 0 00-.504-1.231 3.046 3.046 0 00-1.16-.903 3.455 3.455 0 00-1.524-.34c-.758 0-1.437.211-2.039.633-.594.414-1.004 1.028-1.23 1.84h6.457zM31.133 4.953V6.98a4.825 4.825 0 011.746-1.734 4.651 4.651 0 012.39-.644c1.118 0 2.122.285 3.012.855a5.848 5.848 0 012.098 2.32c.508.97.762 2.035.762 3.2 0 1.171-.254 2.246-.762 3.222a5.985 5.985 0 01-2.098 2.309c-.883.57-1.875.855-2.976.855a4.745 4.745 0 01-2.39-.62 4.575 4.575 0 01-1.7-1.688l.058 1.394v4.664h-2.835V4.953h2.695zm3.656 9.797c.64 0 1.23-.152 1.77-.457.539-.313.968-.754 1.289-1.324.32-.57.48-1.235.48-1.992 0-.735-.16-1.387-.48-1.957a3.338 3.338 0 00-1.29-1.325 3.422 3.422 0 00-1.78-.48 3.34 3.34 0 00-1.782.504c-.539.328-.969.781-1.289 1.36a3.928 3.928 0 00-.469 1.898c0 .718.16 1.367.48 1.945.321.57.75 1.02 1.29 1.348.547.32 1.14.48 1.781.48zM55.086 10.766c0 .265-.02.586-.059.96h-9.41c.094.641.297 1.196.61 1.665.32.468.714.828 1.183 1.078.477.242.992.363 1.547.363.703 0 1.277-.137 1.723-.41.453-.281.785-.684.996-1.207h3.093a5.545 5.545 0 01-1.113 2.062 5.86 5.86 0 01-2.004 1.524c-.797.375-1.675.562-2.636.562-1.18 0-2.246-.285-3.2-.855a6.082 6.082 0 01-2.238-2.32 6.535 6.535 0 01-.809-3.211c0-1.165.27-2.235.81-3.211a6.082 6.082 0 012.237-2.32c.953-.571 2.02-.856 3.2-.856 1.18 0 2.23.281 3.152.844a5.849 5.849 0 012.145 2.261c.515.938.773 1.961.773 3.07zm-2.895-1.23a2.271 2.271 0 00-.504-1.231 3.046 3.046 0 00-1.16-.903 3.454 3.454 0 00-1.523-.34c-.758 0-1.438.211-2.04.633-.593.414-1.003 1.028-1.23 1.84h6.457zM57.406.488h2.836V17h-2.836V.488zM68.387 17.363a5.155 5.155 0 01-2.895-.855c-.867-.57-1.547-1.344-2.039-2.32-.492-.977-.738-2.047-.738-3.211 0-1.157.246-2.223.738-3.2.5-.976 1.18-1.75 2.04-2.32a5.085 5.085 0 012.882-.867c.984 0 1.856.215 2.613.644a4.18 4.18 0 011.735 1.758V4.953h2.695V17h-2.695v-2.027a4.18 4.18 0 01-1.735 1.757c-.757.422-1.625.633-2.601.633zm.68-2.625a3.36 3.36 0 001.78-.492c.547-.336.977-.789 1.29-1.36a3.952 3.952 0 00.469-1.91c0-.687-.16-1.316-.481-1.886a3.6 3.6 0 00-1.277-1.371 3.302 3.302 0 00-1.782-.504c-.648 0-1.242.16-1.78.48-.54.313-.97.754-1.29 1.325-.312.57-.469 1.222-.469 1.957 0 .757.16 1.421.48 1.992.321.57.75 1.008 1.29 1.312a3.534 3.534 0 001.77.457zM81.453 4.953v1.875c.352-.672.895-1.21 1.629-1.617.742-.414 1.57-.621 2.484-.621 1.602 0 2.809.508 3.621 1.523.813 1.016 1.22 2.48 1.22 4.395V17H87.57v-6.434c0-1.156-.242-2.004-.726-2.543-.485-.546-1.172-.82-2.063-.82-.57 0-1.097.145-1.582.434-.484.281-.875.699-1.172 1.254-.289.546-.433 1.199-.433 1.957V17h-2.836V4.953h2.695zM105.102 10.766c0 .265-.02.586-.059.96h-9.41c.094.641.297 1.196.61 1.665.32.468.714.828 1.183 1.078.476.242.992.363 1.547.363.703 0 1.277-.137 1.722-.41.453-.281.785-.684.996-1.207h3.094a5.55 5.55 0 01-1.113 2.062 5.855 5.855 0 01-2.004 1.524c-.797.375-1.676.562-2.637.562-1.18 0-2.246-.285-3.199-.855a6.08 6.08 0 01-2.238-2.32 6.534 6.534 0 01-.809-3.211c0-1.165.27-2.235.809-3.211a6.081 6.081 0 012.238-2.32c.953-.571 2.02-.856 3.2-.856 1.179 0 2.23.281 3.152.844a5.855 5.855 0 012.144 2.261c.516.938.774 1.961.774 3.07zm-2.895-1.23a2.27 2.27 0 00-.504-1.231 3.043 3.043 0 00-1.16-.903 3.455 3.455 0 00-1.524-.34c-.757 0-1.437.211-2.038.633-.594.414-1.004 1.028-1.231 1.84h6.457z" fill="#012345"/></symbol>
<symbol id="i-pilot" viewBox="0 0 22 28" fill="none" xmlns="http://www.w3.org/2000/svg"><path d="M14.941 18.752a10.677 10.677 0 016.643 8.581H.416a10.677 10.677 0 016.643-8.581L11 24.667l3.941-5.915zM19 .667v8a8 8 0 01-8 8 8 8 0 01-8-8v-8h16zm-2.667 8H5.667A5.332 5.332 0 0011 14a5.332 5.332 0 005.333-5.333z" fill="#677B8F"/></symbol>
<symbol id="i-reminder" viewBox="0 0 24 24" xmlns="http://www.w3.org/2000/svg"><circle cx="20" cy="4" r="3" fill="#F84AB3"/><path fill-rule="evenodd" clip-rule="evenodd" d="M21 10.93V20H3v-8.969C3 6.043 7.03 2 12 2c.43 0 .851.03 1.264.088A7.005 7.005 0 0013 4.071 7.03 7.03 0 0012 4c-3.866 0-7 3.148-7 7.031V18h14v-6.969-.102a7.056 7.056 0 002 0zm-7.232 11.838A2.5 2.5 0 0014.5 21h-5a2.5 2.5 0 004.268 1.768z"/></symbol>
</svg>